<svg width="247" height="48" viewBox="0 0 247 48" fill="none" xmlns="http://www.w3.org/2000/svg">
<path d="M0.00564374 9.27829C0.00564374 7.32556 1.46737 6.23631 3.04762 6.23631H10.5143C15.2042 6.23631 19.6684 9.27829 19.6684 15.3171C19.6684 20.5319 16.4797 24.364 10.7005 24.364H6.08395V29.957C6.08395 32.0959 4.80847 33.1852 3.04198 33.1852C1.27549 33.1852 0 32.0959 0 29.957V9.27829H0.00564374ZM6.08395 18.9629H9.35167C11.9422 18.9629 13.37 17.2021 13.37 15.3227C13.37 12.9185 11.7559 11.643 9.35167 11.643H6.08395V18.9573V18.9629Z" fill="#002341"/>
<path d="M52.9665 12.0945C52.7802 11.3044 52.3682 9.99506 52.3682 8.97918C52.3682 7.36507 53.5647 6.01622 55.4102 6.01622C57.3968 6.01622 58.2208 7.21834 58.5651 8.71957L61.6804 23.1337H61.7594L66.1502 9.13721C66.9009 6.81199 67.9506 6.02186 69.5647 6.02186C71.1788 6.02186 72.2285 6.81199 72.9792 9.13721L77.37 23.1337H77.4434L80.5587 8.71957C80.8973 7.21834 81.7213 6.01622 83.7136 6.01622C85.5534 6.01622 86.7555 7.36507 86.7555 8.97918C86.7555 9.99506 86.3435 11.3044 86.1573 12.0945L82.1051 28.642C81.394 31.5711 80.7562 33.1852 77.8271 33.1852C75.5019 33.1852 74.2208 32.0226 73.5097 29.8441L69.6042 17.6085H69.5308L65.631 29.8441C64.9143 32.0226 63.6444 33.1852 61.3135 33.1852C58.3844 33.1852 57.7467 31.5711 57.0356 28.642L52.9834 12.0945H52.9665Z" fill="#002341"/>
<path d="M88.7196 9.27829C88.7196 7.32556 90.1813 6.23631 91.7616 6.23631H101.068C102.981 6.23631 104.11 7.36506 104.11 9.05254C104.11 10.74 102.981 11.8688 101.068 11.8688H94.7979V16.7111H100.543C102.456 16.7111 103.58 17.8003 103.58 19.5273C103.58 21.2543 102.456 22.3435 100.543 22.3435H94.7979V27.3383H101.288C103.201 27.3383 104.33 28.388 104.33 30.1545C104.33 31.921 103.201 32.9707 101.288 32.9707H91.7559C90.1813 32.9707 88.7139 31.8815 88.7139 29.9287V9.27829H88.7196Z" fill="#002341"/>
<path d="M106.881 9.27829C106.881 7.32556 108.343 6.23631 109.923 6.23631H117.237C122.644 6.23631 126.171 9.5379 126.171 14.5326C126.171 18.4719 123.767 21.3277 119.941 22.0388L125.235 27.7446C126.059 28.642 126.51 29.3587 126.51 30.369C126.51 31.2324 125.72 33.1852 123.395 33.1852C121.82 33.1852 121.256 32.6208 120.505 31.6839L113.038 22.2645H112.959V29.957C112.959 32.0959 111.684 33.1852 109.923 33.1852C108.162 33.1852 106.881 32.0959 106.881 29.957V9.27829ZM112.959 17.7608H116.978C118.964 17.7608 120.093 16.4458 120.093 14.7584C120.093 12.958 118.705 11.8688 116.978 11.8688H112.959V17.7608Z" fill="#002341"/>
<path d="M131.166 25.9443C132.667 25.9443 134.62 27.485 137.735 27.485C140.1 27.485 140.964 26.2829 140.964 24.9679C140.964 22.9418 138.638 22.5298 135.184 21.4011C132.03 20.3852 128.768 19.0363 128.768 14.194C128.768 8.38097 133.305 5.63811 138.373 5.63811C143.441 5.63811 145.953 7.32559 145.953 9.65645C145.953 11.3101 144.863 12.5065 143.249 12.5065C141.297 12.5065 140.659 11.4963 138.068 11.4963C136.415 11.4963 135.292 12.3598 135.292 13.6748C135.292 15.2155 136.793 15.4018 140.997 16.7901C144.299 17.8794 147.488 19.5669 147.488 24.6349C147.488 30.7923 142.95 33.569 137.278 33.569C133.711 33.569 128.31 32.1806 128.31 29.1782C128.31 27.5245 129.326 25.9499 131.16 25.9499L131.166 25.9443Z" fill="#00AEEF"/>
<path d="M152.409 9.82646C152.973 6.63774 154.886 6 156.427 6C159.469 6 160.141 7.76085 161.681 12.5693L164.644 21.763H164.718L167.681 12.5693C169.222 7.76649 169.893 6 172.935 6C174.476 6 176.389 6.63774 176.953 9.82646L179.352 23.5633C179.837 26.34 180.368 29.382 180.368 30.2794C180.368 31.6282 179.318 33.169 177.518 33.169C174.775 33.169 174.29 31.2162 173.99 29.1563L172.19 17.2931H172.117L168.025 30.4318C167.427 32.3845 166.524 33.169 164.684 33.169C162.844 33.169 161.941 32.3845 161.343 30.4318L157.251 17.2931H157.178L155.377 29.1563C155.078 31.2219 154.593 33.169 151.85 33.169C150.05 33.169 149 31.6282 149 30.2794C149 29.382 149.525 26.34 150.016 23.5633L152.414 9.82646H152.409Z" fill="#00AEEF"/>
<path d="M188.286 11.1577C189.376 8.19472 190.313 5.63811 193.355 5.63811C196.397 5.63811 197.407 8.18908 198.496 11.1577L204.349 26.9545C205.139 29.0935 205.252 29.8046 205.252 30.7076C205.252 32.2088 204.049 33.1852 202.322 33.1852C200.336 33.1852 199.698 31.9097 199.134 30.2222L198.383 27.8236H188.399L187.649 30.2222C187.084 31.9097 186.447 33.1852 184.46 33.1852C182.733 33.1852 181.531 32.2088 181.531 30.7076C181.531 29.8046 181.644 29.0935 182.434 26.9545L188.286 11.1577ZM193.541 12.3937H193.467L190.2 22.1912H196.577L193.535 12.3937H193.541Z" fill="#00AEEF"/>
<path d="M207.012 9.27829C207.012 7.32556 208.474 6.23631 210.054 6.23631H217.374C222.775 6.23631 226.303 9.5379 226.303 14.5326C226.303 18.4719 223.904 21.3277 220.072 22.0388L225.366 27.7446C226.19 28.642 226.641 29.3587 226.641 30.369C226.641 31.2324 225.857 33.1852 223.526 33.1852C221.951 33.1852 221.387 32.6208 220.636 31.6839L213.17 22.2645H213.096V29.957C213.096 32.0959 211.821 33.1852 210.054 33.1852C208.288 33.1852 207.012 32.0959 207.012 29.957V9.27829ZM213.096 17.7608H217.109C219.101 17.7608 220.224 16.4458 220.224 14.7584C220.224 12.958 218.836 11.8688 217.109 11.8688H213.096V17.7608Z" fill="#00AEEF"/>
<path d="M233.521 11.8688H230.107C228.08 11.8688 226.952 10.74 226.952 9.05254C226.952 7.36506 228.075 6.23631 230.107 6.23631H243.014C245.04 6.23631 246.169 7.28605 246.169 9.05254C246.169 10.819 245.04 11.8688 243.014 11.8688H239.599V29.957C239.599 32.0959 238.324 33.1852 236.557 33.1852C234.791 33.1852 233.515 32.0959 233.515 29.957V11.8688H233.521Z" fill="#00AEEF"/>
<path d="M21.4857 18.1616C21.4857 13.5337 23.5908 9.36298 26.8811 6.61447C28.2243 5.48573 30.2279 5.66633 31.351 7.00954C32.4797 8.35275 32.2991 10.3563 30.9559 11.4794C29.0427 13.0878 27.8349 15.4695 27.8349 18.1616C27.8406 22.97 31.7347 26.8586 36.5432 26.8699C41.3517 26.8642 45.2458 22.97 45.2515 18.1616C45.2515 15.4695 44.0437 13.0935 42.1305 11.4794C40.7873 10.3506 40.6123 8.35275 41.7354 7.00954C42.8642 5.66633 44.8621 5.49137 46.2053 6.61447C49.4956 9.36298 51.6007 13.5337 51.6007 18.1616C51.6007 26.4804 44.8564 33.2191 36.5432 33.2191C28.23 33.2191 21.4857 26.4804 21.4857 18.1616Z" fill="#00AEEF"/>
<path d="M33.3658 14.764V3.17178C33.3658 1.41658 34.788 0 36.5432 0C38.2927 0 39.715 1.42222 39.715 3.17178V14.7584C39.715 16.5136 38.2927 17.9358 36.5432 17.9358C34.788 17.9358 33.3658 16.5136 33.3658 14.7584V14.764Z" fill="#00AEEF"/>
<path d="M132.718 46.9842C134.135 46.9842 134.761 46.1376 135.252 46.1376C135.529 46.1376 135.715 46.3521 135.715 46.6794C135.715 47.2776 134.377 47.9888 132.718 47.9888C129.987 47.9888 128.581 45.641 128.581 43.1916C128.581 40.7422 129.987 38.3887 132.786 38.3887C134.456 38.3887 135.517 39.2917 135.517 39.7715C135.517 40.0762 135.331 40.3246 135.038 40.3246C134.507 40.3246 134.242 39.399 132.786 39.399C130.692 39.399 129.829 41.3912 129.829 43.1916C129.829 44.9919 130.715 46.9842 132.718 46.9842Z" fill="#002341"/>
<path d="M142.064 38.3943C144.756 38.3943 146.201 40.7421 146.201 43.1972C146.201 45.6522 144.756 47.9944 142.064 47.9944C139.372 47.9944 137.927 45.6466 137.927 43.1972C137.927 40.7478 139.372 38.3943 142.064 38.3943ZM142.064 46.9841C144.186 46.9841 144.954 44.9975 144.954 43.1915C144.954 41.3855 144.186 39.3989 142.064 39.3989C139.942 39.3989 139.175 41.3912 139.175 43.1915C139.175 44.9919 139.942 46.9841 142.064 46.9841Z" fill="#002341"/>
<path d="M150.039 47.3735C150.039 47.7573 149.813 47.9944 149.452 47.9944C149.091 47.9944 148.865 47.7573 148.865 47.3735V39.0829C148.865 38.6201 149.023 38.3943 149.395 38.3943C149.74 38.3943 149.898 38.5411 150.219 39.0039L154.994 45.861H155.022V39.0208C155.022 38.637 155.248 38.3943 155.609 38.3943C155.97 38.3943 156.196 38.6314 156.196 39.0208V47.3115C156.196 47.7742 156.038 48 155.666 48C155.321 48 155.163 47.8533 154.842 47.3905L150.067 40.5333H150.039V47.3735Z" fill="#002341"/>
<path d="M160.807 39.5626H159.041C158.708 39.5626 158.471 39.3876 158.471 39.0208C158.471 38.654 158.708 38.479 159.041 38.479H163.736C164.069 38.479 164.306 38.6483 164.306 39.0208C164.306 39.3933 164.064 39.5626 163.736 39.5626H161.975V47.3735C161.975 47.7573 161.75 47.9944 161.388 47.9944C161.027 47.9944 160.807 47.7573 160.807 47.3735V39.5626Z" fill="#002341"/>
<path d="M167.755 47.3736C167.755 47.7573 167.529 47.9944 167.168 47.9944C166.806 47.9944 166.581 47.7573 166.581 47.3736V39.1111C166.581 38.7556 166.767 38.4734 167.207 38.4734H169.369C170.853 38.4734 172.258 39.4836 172.258 41.0187C172.258 42.9263 171.09 43.6431 169.685 43.6995L169.182 43.7108L172.196 47.0124C172.354 47.1873 172.422 47.3284 172.422 47.5429C172.422 47.7968 172.185 47.9944 171.891 47.9944C171.654 47.9944 171.496 47.8759 171.361 47.7291L167.755 43.7785V47.3736ZM167.755 42.836H169.346C170.565 42.836 171.096 42.3224 171.096 41.0977C171.096 40.2229 170.407 39.478 169.318 39.478H167.755V42.836Z" fill="#002341"/>
<path d="M178.737 38.3943C181.429 38.3943 182.874 40.7421 182.874 43.1972C182.874 45.6522 181.429 47.9944 178.737 47.9944C176.045 47.9944 174.6 45.6466 174.6 43.1972C174.6 40.7478 176.045 38.3943 178.737 38.3943ZM178.737 46.9841C180.859 46.9841 181.627 44.9975 181.627 43.1915C181.627 41.3855 180.859 39.3989 178.737 39.3989C176.615 39.3989 175.848 41.3912 175.848 43.1915C175.848 44.9919 176.615 46.9841 178.737 46.9841Z" fill="#002341"/>
<path d="M186.706 46.8261H189.195C189.528 46.8261 189.765 46.9954 189.765 47.3679C189.765 47.7404 189.528 47.9097 189.195 47.9097H186.159C185.718 47.9097 185.532 47.6332 185.532 47.272V39.0095C185.532 38.6258 185.758 38.3831 186.119 38.3831C186.48 38.3831 186.706 38.6201 186.706 39.0095V46.8205V46.8261Z" fill="#002341"/>
<path d="M199.704 39.4949C199.704 39.7771 199.495 40.0141 199.201 40.0141C198.682 40.0141 198.513 39.4046 197.345 39.4046C196.481 39.4046 195.849 39.9464 195.849 40.7421C195.849 42.8247 200.33 41.8314 200.33 45.0145C200.33 46.5778 199.19 48 197.136 48C195.889 48 194.512 47.5259 194.512 46.86C194.512 46.5439 194.67 46.2617 195.003 46.2617C195.398 46.2617 195.956 46.9898 197.147 46.9898C198.338 46.9898 199.083 46.115 199.083 45.0652C199.083 42.8247 194.602 43.9139 194.602 40.8212C194.602 39.7206 195.635 38.3943 197.384 38.3943C198.552 38.3943 199.704 38.8854 199.704 39.4949Z" fill="#002341"/>
<path d="M204.823 43.485L202.288 39.3595C202.159 39.1507 202.102 39.0152 202.102 38.8685C202.102 38.575 202.339 38.3887 202.633 38.3887C202.847 38.3887 203.045 38.4678 203.22 38.7612L205.409 42.3281L207.599 38.7612C207.769 38.4678 207.972 38.3887 208.186 38.3887C208.48 38.3887 208.717 38.575 208.717 38.8685C208.717 39.0152 208.66 39.145 208.53 39.3595L205.996 43.485V47.3679C205.996 47.7517 205.771 47.9888 205.415 47.9888C205.06 47.9888 204.828 47.7517 204.828 47.3679V43.485H204.823Z" fill="#002341"/>
<path d="M215.687 39.4949C215.687 39.7771 215.478 40.0141 215.184 40.0141C214.665 40.0141 214.496 39.4046 213.328 39.4046C212.464 39.4046 211.832 39.9464 211.832 40.7421C211.832 42.8247 216.313 41.8314 216.313 45.0145C216.313 46.5778 215.173 48 213.119 48C211.872 48 210.495 47.5259 210.495 46.86C210.495 46.5439 210.653 46.2617 210.986 46.2617C211.381 46.2617 211.939 46.9898 213.13 46.9898C214.321 46.9898 215.066 46.115 215.066 45.0652C215.066 42.8247 210.585 43.9139 210.585 40.8212C210.585 39.7206 211.618 38.3943 213.367 38.3943C214.535 38.3943 215.687 38.8854 215.687 39.4949Z" fill="#002341"/>
<path d="M220.433 39.5626H218.672C218.339 39.5626 218.102 39.3876 218.102 39.0208C218.102 38.654 218.345 38.479 218.672 38.479H223.368C223.701 38.479 223.938 38.6483 223.938 39.0208C223.938 39.3933 223.701 39.5626 223.368 39.5626H221.607V47.3735C221.607 47.7573 221.381 47.9944 221.026 47.9944C220.67 47.9944 220.439 47.7573 220.439 47.3735V39.5626H220.433Z" fill="#002341"/>
<path d="M227.381 46.8261H230.191C230.524 46.8261 230.761 46.9954 230.761 47.3679C230.761 47.7404 230.524 47.9097 230.191 47.9097H226.833C226.399 47.9097 226.212 47.6332 226.212 47.272V39.1055C226.212 38.7499 226.399 38.4677 226.833 38.4677H230.191C230.524 38.4677 230.761 38.6371 230.761 39.0095C230.761 39.382 230.524 39.5513 230.191 39.5513H227.381V42.6385H229.943C230.276 42.6385 230.513 42.8078 230.513 43.1803C230.513 43.5528 230.27 43.7221 229.943 43.7221H227.381V46.8148V46.8261Z" fill="#002341"/>
<path d="M234.373 47.4921C234.322 47.9041 234.052 47.9944 233.747 47.9944C233.386 47.9944 233.205 47.7573 233.205 47.4018C233.205 47.2663 233.233 47.097 233.273 46.8713L234.559 39.2861C234.678 38.6201 235.05 38.4 235.474 38.4C235.937 38.4 236.19 38.5693 236.32 39.0095L238.335 45.9175H238.363L240.378 39.0095C240.508 38.5693 240.762 38.4 241.225 38.4C241.648 38.4 242.02 38.6258 242.139 39.2861L243.426 46.8713C243.465 47.097 243.493 47.272 243.493 47.4018C243.493 47.7573 243.307 47.9944 242.952 47.9944C242.647 47.9944 242.382 47.9041 242.325 47.4921L241.225 39.9069H241.196L238.939 47.5203C238.82 47.9041 238.606 47.9944 238.341 47.9944C238.075 47.9944 237.867 47.9041 237.748 47.5203L235.491 39.9069H235.462L234.362 47.4921H234.373Z" fill="#002341"/>
<path d="M36.5432 38.4621C33.9245 38.4621 31.4187 37.9485 29.0935 36.9326C28.5235 36.6843 28.2639 36.0183 28.5122 35.4483C28.7605 34.8783 29.4265 34.6187 29.9965 34.867C32.0339 35.7587 34.2349 36.2102 36.5376 36.2102C37.1584 36.2102 37.6663 36.7182 37.6663 37.339C37.6663 37.9598 37.1584 38.4677 36.5376 38.4677L36.5432 38.4621Z" fill="#00AEEF"/>
<path d="M36.5432 47.4074C32.1355 47.4074 27.7559 46.4649 23.8787 44.6758C23.3143 44.4162 23.066 43.7446 23.3256 43.1802C23.5852 42.6159 24.2568 42.3675 24.8212 42.6271C28.405 44.2751 32.4572 45.1499 36.5432 45.1499C37.164 45.1499 37.672 45.6578 37.672 46.2786C37.672 46.8995 37.164 47.4074 36.5432 47.4074Z" fill="#00AEEF"/>
<path d="M36.3626 38.4621C35.7418 38.4621 35.2339 37.9542 35.2339 37.3334C35.2339 36.7125 35.7418 36.2046 36.3626 36.2046C38.6709 36.2046 40.872 35.7531 42.9037 34.8614C43.4737 34.6131 44.1397 34.8727 44.388 35.4427C44.6364 36.0127 44.3767 36.6787 43.8067 36.927C41.4815 37.9429 38.9757 38.4565 36.357 38.4565L36.3626 38.4621Z" fill="#00AEEF"/>
<path d="M36.3626 47.4074C35.7418 47.4074 35.2339 46.8995 35.2339 46.2786C35.2339 45.6578 35.7418 45.1499 36.3626 45.1499C40.4487 45.1499 44.5009 44.2808 48.0847 42.6271C48.6547 42.3675 49.3207 42.6159 49.5803 43.1802C49.8399 43.7446 49.5916 44.4162 49.0272 44.6758C45.1499 46.4592 40.7704 47.4074 36.3626 47.4074Z" fill="#00AEEF"/>
<path d="M36.5431 43.0335H36.3625C32.965 43.0109 29.7086 42.3224 26.6835 40.9961C26.1135 40.7478 25.8539 40.0818 26.1022 39.5062C26.3562 38.9362 27.0222 38.6765 27.5922 38.9249C30.3576 40.1383 33.3375 40.7591 36.4528 40.776C39.5682 40.7647 42.5481 40.1439 45.3135 38.9249C45.8835 38.6765 46.5495 38.9362 46.8035 39.5062C47.0518 40.0762 46.7922 40.7422 46.2221 40.9961C43.1971 42.328 39.9407 43.0109 36.5431 43.0335Z" fill="#00AEEF"/>
</svg>
