<svg width="29" height="18" viewBox="0 0 29 18" fill="none" xmlns="http://www.w3.org/2000/svg">
<path d="M23.6579 3C24.0776 3 24.4211 3.3375 24.4211 3.75V14.25C24.4211 14.6625 24.0776 15 23.6579 15H3.81579C3.39605 15 3.05263 14.6625 3.05263 14.25V3.75C3.05263 3.3375 3.39605 3 3.81579 3H23.6579ZM3.81579 0C1.70757 0 0 1.67812 0 3.75V14.25C0 16.3219 1.70757 18 3.81579 18H23.6579C25.7661 18 27.4737 16.3219 27.4737 14.25V12C28.3179 12 29 11.3297 29 10.5V7.5C29 6.67031 28.3179 6 27.4737 6V3.75C27.4737 1.67812 25.7661 0 23.6579 0H3.81579ZM6.48684 5.25C5.85247 5.25 5.34211 5.75156 5.34211 6.375V11.625C5.34211 12.2484 5.85247 12.75 6.48684 12.75H17.1711C17.8054 12.75 18.3158 12.2484 18.3158 11.625V6.375C18.3158 5.75156 17.8054 5.25 17.1711 5.25H6.48684Z" fill="#00AEEF"/>
</svg>
