<svg width="156" height="48" viewBox="0 0 156 48" fill="none" xmlns="http://www.w3.org/2000/svg">
<g opacity="0.5">
<path d="M45.1755 12.7102L43.4776 19.8857C43.7551 21.2082 43.9102 22.5878 43.9102 23.9918C43.8939 34.9878 34.9959 43.8857 24 43.9102C13.0041 43.8939 4.10612 34.9959 4.08163 23.9918C4.09796 12.9959 12.9959 4.09796 24 4.07347C29.5592 4.08163 34.5796 6.36735 38.1878 10.0408L34.7265 24.498L32.9225 16.5878H28.4163L26.751 24.498L24.7837 16.6122H11.5102C10.0735 16.6122 8.99592 17.0939 8.17143 18.2612C7.6 19.0857 7.42041 20.1551 7.43674 20.8V27.3388C7.43674 27.7061 7.52653 29.8286 8.5551 30.702C9.2 31.2735 9.76327 31.5265 10.6367 31.5673H20.6694V27.6163H11.9592V20.5796H21.1429L23.649 31.5755H28.1714L30.6612 21.0367L33.1265 31.5755H37.649L41.5347 14.6204L42.8 9.12653C38.4245 3.56735 31.6327 0 24 0C10.7429 0 0 10.7429 0 24C0 37.2571 10.7429 48 24 48C37.2572 48 47.9919 37.2571 48 24C48 19.9184 46.9796 16.0816 45.1837 12.7102H45.1755Z" fill="white"/>
<path d="M54.5222 31.4703V16.6621H61.5916C63.1345 16.6621 64.2937 16.9642 65.0855 17.5846C65.8773 18.205 66.261 19.1437 66.261 20.3029V22.3601C66.261 24.7111 64.563 26.1805 61.8365 26.1886H57.2243V31.4703H54.5304H54.5222ZM61.812 23.6988C63.1018 23.6988 63.5426 23.4376 63.5426 22.5233V22.2621V20.4172C63.5426 20.3356 63.5426 20.1886 63.5426 20.1886C63.5426 19.4295 63.2487 19.1437 62.2038 19.1437H61.8528H57.2161V23.6988H61.8039" fill="white"/>
<path d="M67.9675 31.4639V16.6558H76.1798C77.0043 16.6558 77.7063 16.868 78.2941 17.2517C79.339 17.9619 79.739 18.7374 79.7226 19.8639V22.3456C79.7226 22.9088 79.5267 23.4558 79.1757 23.9456C78.5226 24.8354 77.5022 25.3496 76.5063 25.3496H74.2777L80.1063 31.4721H76.5063L70.6614 25.317V31.4721H67.9675V31.4639ZM70.6614 23.5537C70.9226 23.2109 71.339 22.9741 71.8532 22.8762C72.0083 22.8517 72.1471 22.8517 72.2777 22.8517H75.9185C76.7104 22.8517 77.0043 22.3537 77.0043 21.8721V20.2721C77.0043 20.1905 77.0043 20.0517 77.0043 20.0517C77.0043 19.4966 76.6369 19.1374 76.041 19.1374C76.041 19.1374 75.8614 19.1374 75.7961 19.1374H70.6532V23.5456L70.6614 23.5537Z" fill="white"/>
<path d="M82.1143 29.6009C81.453 28.6213 81.4041 27.5927 81.4041 27.2988C81.4041 27.2417 81.4041 27.209 81.4041 27.2009V20.907C81.4041 19.4621 81.7796 18.3764 82.6204 17.6744C83.4612 16.9723 84.7183 16.6621 86.4245 16.6621H88.1632C89.8694 16.6621 91.1265 16.9641 91.9673 17.6744C92.8163 18.3846 93.1918 19.4703 93.1836 20.907V27.2254C93.1836 28.6621 92.8081 29.756 91.9673 30.458C91.1265 31.1601 89.8694 31.4703 88.1632 31.4703H86.4081C84.0571 31.4703 82.7673 30.5805 82.1143 29.6009ZM88.8408 28.9805C90.1877 28.9805 90.4734 28.6376 90.4734 27.3641V20.8009C90.4734 19.5519 90.2285 19.1437 88.8734 19.1437H88.5469H86.0816C86 19.1437 85.7632 19.1437 85.7632 19.1437C84.4 19.1437 84.1061 19.5111 84.1061 20.8009V27.3233C84.1061 28.6131 84.3755 28.9805 85.7632 28.9805H86.0816H88.5469H88.8408Z" fill="white"/>
<path d="M95.0042 31.4639V16.6558H103.282C105.225 16.6558 106.8 18.0517 106.808 20.1986V27.6027C106.808 27.8149 106.784 28.0027 106.759 28.2149C106.539 29.6109 105.763 30.5578 104.506 31.0884C103.894 31.3578 103.331 31.4639 102.841 31.4639H95.0042ZM102.735 28.9823C103.665 28.9823 104.114 28.5823 104.114 27.4476V20.5823C104.114 20.5088 104.114 20.3047 104.114 20.3047C104.114 19.3905 103.796 19.1456 102.669 19.1456H97.7062V28.9823H102.735Z" fill="white"/>
<path d="M112.588 31.4639C112.123 31.4639 111.633 31.3823 111.127 31.1945C109.608 30.6394 108.702 29.3741 108.702 27.7251V16.6558H111.396V27.4639C111.396 28.6394 111.755 28.9823 112.931 28.9823H116.163C117.347 28.9823 117.674 28.6966 117.674 27.5864V16.6639H120.392V27.7333C120.392 29.3905 119.486 30.6313 117.951 31.2027C117.469 31.3905 116.98 31.4803 116.514 31.4803H112.58L112.588 31.4639Z" fill="white"/>
<path d="M126.032 31.4639C125.412 31.4639 124.62 31.2354 123.943 30.819C123.143 30.3292 122.604 29.5047 122.392 28.4272C122.367 28.2231 122.351 28.019 122.351 27.8068V20.4027C122.351 19.2435 122.726 18.3292 123.453 17.668C124.155 17.0313 125.126 16.6558 126.212 16.6558H133.077V19.1456H126.514C125.526 19.1456 125.045 19.5782 125.045 20.4598V27.6435C125.045 27.717 125.045 27.8966 125.045 27.8966C125.045 28.5905 125.771 28.9823 126.514 28.9823H133.028V31.4721H126.024L126.032 31.4639Z" fill="white"/>
<path d="M134.204 19.1456V16.6558H143.763V19.1456H140.335V31.4721H137.616V19.1456H134.212H134.204Z" fill="white"/>
<path d="M144.808 31.4604V28.9706H151.331C151.388 28.9706 151.551 28.9706 151.551 28.9706C151.935 28.9706 152.229 28.7747 152.384 28.5787C152.571 28.3747 152.661 28.1298 152.661 27.9747V26.1543C152.661 25.9828 152.629 25.8604 152.514 25.6971C152.318 25.3951 152.025 25.1502 151.371 25.1502C151.371 25.1502 151.274 25.1502 151.192 25.1502H148.816C148.588 25.1502 148.359 25.1257 148.131 25.1094C146.106 24.8236 144.833 23.5502 144.833 22.0318V20.2114C144.816 18.5624 145.494 17.5175 146.914 16.9216C147.388 16.7257 147.902 16.644 148.841 16.644H155.469V19.1338H148.735H148.539C147.714 19.1338 147.527 19.3216 147.527 19.9175C147.527 19.9175 147.527 20.0563 147.527 20.1379V21.5583C147.527 21.6563 147.527 21.8114 147.527 21.8114C147.527 22.5787 147.918 22.8563 148.816 22.8563H151.584C152.294 22.8563 153.029 23.0196 153.633 23.3379C154.759 23.9175 155.371 24.8318 155.371 25.8196V28.0971C155.371 29.2563 154.841 30.1869 153.804 30.8318C153.176 31.2318 152.392 31.4604 151.584 31.4604H144.8H144.808Z" fill="white"/>
<path d="M54.3511 42.1987V41.3661H56.8735C56.8735 41.3661 56.9388 41.3661 56.9715 41.3661C57.1429 41.3498 57.2817 41.2845 57.3552 41.1865C57.445 41.0885 57.4858 40.9824 57.4858 40.8926V40.1661C57.4858 40.0845 57.4694 40.011 57.4123 39.9457C57.3225 39.7987 57.2001 39.7334 56.9143 39.7008C56.8898 39.7008 56.849 39.7008 56.8164 39.7008H55.8694C55.7796 39.7008 55.6899 39.7008 55.6082 39.6845C54.8245 39.5702 54.3592 39.0967 54.3592 38.5334V37.8069C54.3592 37.1702 54.596 36.8028 55.1429 36.5661C55.3225 36.4926 55.5103 36.46 55.8858 36.46H58.4572V37.2926H55.845C55.845 37.2926 55.7796 37.2926 55.7552 37.2926C55.4286 37.3334 55.3307 37.4069 55.2899 37.66C55.2817 37.7008 55.2817 37.7334 55.2817 37.7661V38.3375C55.2817 38.3375 55.2817 38.411 55.2899 38.4518C55.3307 38.7865 55.5103 38.9416 55.8776 38.9416H56.9878C57.2572 38.9416 57.5429 39.0069 57.7715 39.1293C58.2041 39.3498 58.4245 39.6926 58.4245 40.0518V40.9661C58.4245 41.4069 58.2286 41.7416 57.8368 41.9865C57.6001 42.1416 57.298 42.2232 56.996 42.2232H54.3674L54.3511 42.1987Z" fill="white"/>
<path d="M59.4204 42.197V36.4419H60.3347V38.9235H63.0857V36.4419H64.0082V42.197H63.0857V39.748H60.3347V42.197H59.4204Z" fill="white"/>
<path d="M65.2084 40.7848V36.4419H66.1226V40.6786C66.1226 41.1766 66.3267 41.3643 66.8165 41.3643H68.1063C68.5961 41.3643 68.792 41.1766 68.792 40.7276V36.4419H69.7145V40.7848C69.7145 41.4133 69.3798 41.8705 68.792 42.099C68.6043 42.1725 68.4247 42.2052 68.2451 42.2052H66.6696C66.4982 42.2052 66.3104 42.1725 66.1145 42.099C65.5349 41.8868 65.2002 41.4215 65.2002 40.7848H65.2084Z" fill="white"/>
<path d="M70.5386 37.2745V36.4419H74.1957V37.2745H72.8243V42.197H71.9018V37.2745H70.5386Z" fill="white"/>
<path d="M74.751 37.2745V36.4419H78.4081V37.2745H77.0367V42.197H76.1142V37.2745H74.751Z" fill="white"/>
<path d="M79.1916 40.6541V37.8786C79.1916 36.899 79.7549 36.4419 81.0365 36.4419H83.3467V37.2745H80.6692C80.5712 37.2745 80.4651 37.3072 80.3671 37.3725C80.2447 37.446 80.1549 37.5766 80.1141 37.7562C80.1059 37.8052 80.0977 37.8541 80.0977 37.9113V38.8909H83.3304V39.7317H80.0977V40.8582C80.0977 40.9235 80.1141 40.9725 80.1386 41.0297C80.2937 41.3235 80.4569 41.3807 81.11 41.3807H83.3141V42.2133H80.8569C79.7712 42.2133 79.1753 41.6664 79.1753 40.6705L79.1916 40.6541Z" fill="white"/>
<path d="M84.3673 42.197V36.4419H87.5673C87.8856 36.4419 88.1469 36.5235 88.3673 36.6705C88.7754 36.948 88.906 37.2174 88.906 37.6419V38.6296C88.906 38.8337 88.8326 39.0378 88.702 39.2256C88.4571 39.5603 88.0652 39.7562 87.6979 39.7562H86.6122L88.9387 42.2052H87.7224L85.3958 39.748C85.3224 39.6827 85.2816 39.5194 85.3387 39.3235C85.3958 39.1276 85.5754 38.9807 85.8367 38.9317C85.8856 38.9317 85.9428 38.9317 85.9918 38.9317H87.3713C87.3713 38.9317 87.4367 38.9317 87.4611 38.9317C87.804 38.8745 87.9591 38.7113 87.9591 38.4664V37.8296C87.9591 37.8296 87.9591 37.7562 87.9509 37.7235C87.9101 37.4786 87.7632 37.3399 87.4938 37.299C87.4693 37.299 87.4285 37.299 87.3958 37.299H85.2571V42.2215H84.3428L84.3673 42.197Z" fill="white"/>
<path d="M89.8206 42.1987V41.3661H92.343C92.343 41.3661 92.4083 41.3661 92.441 41.3661C92.6124 41.3498 92.7512 41.2845 92.8246 41.1865C92.9144 41.0885 92.9553 40.9824 92.9553 40.8926V40.1661C92.9553 40.0845 92.9389 40.011 92.8818 39.9457C92.792 39.7987 92.6695 39.7334 92.3838 39.7008C92.3593 39.7008 92.3185 39.7008 92.2859 39.7008H91.3389C91.2491 39.7008 91.1593 39.7008 91.0777 39.6845C90.294 39.5702 89.8287 39.0967 89.8287 38.5334V37.8069C89.8287 37.1702 90.0655 36.8028 90.6124 36.5661C90.792 36.4926 90.9797 36.46 91.3553 36.46H93.9267V37.2926H91.3144C91.3144 37.2926 91.2491 37.2926 91.2246 37.2926C90.8981 37.3334 90.8001 37.4069 90.7593 37.66C90.7512 37.7008 90.7512 37.7334 90.7512 37.7661V38.3375C90.7512 38.3375 90.7512 38.411 90.7593 38.4518C90.8001 38.7865 90.9797 38.9416 91.3471 38.9416H92.4573C92.7267 38.9416 93.0124 39.0069 93.241 39.1293C93.6736 39.3498 93.894 39.6926 93.894 40.0518V40.9661C93.894 41.4069 93.6981 41.7416 93.3063 41.9865C93.0695 42.1416 92.7675 42.2232 92.4655 42.2232H89.8369L89.8206 42.1987Z" fill="white"/>
<path d="M96.7263 40.3072C96.7263 40.193 96.7834 40.0134 96.9304 39.7766C97.0038 39.6623 97.0855 39.5399 97.2487 39.4746L97.8855 39.1399L97.4528 38.6909C97.4528 38.6909 97.4038 38.6338 97.3712 38.6011C97.2569 38.4542 97.1834 38.2991 97.1589 38.0705C97.1508 38.0297 97.1508 37.997 97.1508 37.9562V37.4827C97.1508 37.3276 97.2406 37.0991 97.4447 36.8623C97.7059 36.5603 98.0242 36.4297 98.6283 36.4297H99.3549C99.9181 36.4297 100.261 36.5848 100.53 36.9685C100.669 37.1644 100.734 37.3521 100.734 37.4991V38.0705C100.734 38.2827 100.604 38.5521 100.318 38.7807C100.245 38.846 100.188 38.8868 100.13 38.9113L99.363 39.3276L100.726 40.5603L100.751 40.2583V39.2787H101.665V40.4379C101.665 40.7807 101.616 41.0174 101.485 41.2542L102.49 42.2011H101.208L100.914 41.8909C100.596 42.095 100.228 42.2011 99.7957 42.2011H98.1793C97.9671 42.2011 97.6732 42.1195 97.4038 41.9807C96.963 41.7521 96.71 41.344 96.71 40.9603V40.3236L96.7263 40.3072ZM97.7222 41.1236C97.812 41.2542 97.9589 41.3195 98.1957 41.3195H99.7304C99.9508 41.3195 100.261 41.3032 100.171 41.2134L98.5549 39.7358L97.8691 40.1113C97.8038 40.144 97.7549 40.2093 97.7222 40.2583C97.6406 40.3644 97.6161 40.446 97.6161 40.5113V40.8623C97.6161 40.9276 97.6487 41.0338 97.7222 41.1236ZM98.0814 37.9807L98.1712 38.1685C98.1957 38.2338 98.7018 38.7154 98.7018 38.7154L99.6896 38.144C99.7875 38.095 99.812 37.9644 99.812 37.8827V37.6868C99.812 37.6378 99.7875 37.5562 99.7222 37.4583C99.6569 37.344 99.51 37.2787 99.3304 37.2787H98.5712C98.5712 37.2787 98.5222 37.2787 98.4814 37.2787C98.3508 37.3032 98.2447 37.3603 98.1793 37.4338C98.0977 37.5317 98.0569 37.6378 98.0569 37.7032V37.8664C98.0569 37.8664 98.0651 37.9481 98.0814 37.997V37.9807Z" fill="white"/>
<path d="M103.902 42.1977L106 36.9732C106.212 36.4508 106.547 36.263 107.02 36.4263C107.216 36.4916 107.331 36.6222 107.477 36.9732L109.567 42.1977H108.588L108.106 40.9977H105.355L104.873 42.1977H103.894H103.902ZM107.78 40.1651L106.726 37.5447L105.698 40.1651H107.78Z" fill="white"/>
<path d="M110.18 40.7848V36.4419H111.094V40.6786C111.094 41.1766 111.298 41.3643 111.788 41.3643H113.078C113.567 41.3643 113.763 41.1766 113.763 40.7276V36.4419H114.686V40.7848C114.686 41.4133 114.351 41.8705 113.763 42.099C113.575 42.1725 113.396 42.2052 113.216 42.2052H111.641C111.469 42.2052 111.282 42.1725 111.086 42.099C110.506 41.8868 110.171 41.4215 110.171 40.7848H110.18Z" fill="white"/>
<path d="M115.551 37.2745V36.4419H119.208V37.2745H117.837V42.197H116.914V37.2745H115.551Z" fill="white"/>
<path d="M120.016 40.5807V38.0582C120.016 36.9317 120.596 36.4419 121.943 36.4419H122.637C123.984 36.4419 124.563 36.9317 124.563 38.0582V40.5807C124.563 41.7072 123.984 42.197 122.637 42.197H121.943C119.927 42.197 120.016 40.5807 120.016 40.5807ZM121.665 41.3562C121.706 41.3562 121.755 41.3562 121.796 41.3562H122.784C122.825 41.3562 122.874 41.3562 122.906 41.3562C123.47 41.3235 123.633 41.1603 123.633 40.6378V38.0174C123.633 37.4786 123.461 37.3154 122.914 37.2827C122.874 37.2827 122.825 37.2827 122.784 37.2827H121.796C121.755 37.2827 121.706 37.2827 121.665 37.2827C121.102 37.3154 120.923 37.4786 120.923 38.0174V40.6215C120.923 41.1603 121.102 41.3235 121.665 41.3562Z" fill="white"/>
<path d="M125.788 42.1962V37.2819C125.788 36.8003 125.927 36.5717 126.22 36.4493C126.914 36.1554 127.388 36.4084 127.592 37.0533L128.939 41.2901L130.327 37.0533C130.539 36.4166 131.004 36.1554 131.698 36.4493C131.992 36.5717 132.131 36.8003 132.131 37.2819V42.1962H131.216V37.2737L129.804 41.5676C129.641 42.0901 129.421 42.2697 128.972 42.2697C128.523 42.2697 128.294 42.0819 128.131 41.5676L126.718 37.2737V42.1962H125.804H125.788Z" fill="white"/>
<path d="M132.931 42.1977L135.028 36.9732C135.241 36.4508 135.575 36.263 136.049 36.4263C136.245 36.4916 136.359 36.6222 136.506 36.9732L138.596 42.1977H137.616L137.135 40.9977H134.384L133.902 42.1977H132.922H132.931ZM136.808 40.1651L135.755 37.5447L134.726 40.1651H136.808Z" fill="white"/>
<path d="M138.359 37.2745V36.4419H142.016V37.2745H140.645V42.197H139.722V37.2745H138.359Z" fill="white"/>
<path d="M142.988 42.197V36.4419H143.902V42.197H142.988Z" fill="white"/>
<path d="M145.086 40.5807V38.0582C145.086 36.9317 145.665 36.4419 147.012 36.4419H147.706C149.053 36.4419 149.633 36.9317 149.633 38.0582V40.5807C149.633 41.7072 149.053 42.197 147.706 42.197H147.012C144.996 42.197 145.086 40.5807 145.086 40.5807ZM146.735 41.3562C146.775 41.3562 146.824 41.3562 146.865 41.3562H147.853C147.894 41.3562 147.943 41.3562 147.975 41.3562C148.539 41.3235 148.702 41.1603 148.702 40.6378V38.0174C148.702 37.4786 148.53 37.3154 147.984 37.2827C147.943 37.2827 147.894 37.2827 147.853 37.2827H146.865C146.824 37.2827 146.775 37.2827 146.735 37.2827C146.171 37.3154 145.992 37.4786 145.992 38.0174V40.6215C145.992 41.1603 146.171 41.3235 146.735 41.3562Z" fill="white"/>
<path d="M150.849 42.1983V37.2514C150.849 36.6146 151.225 36.2799 151.894 36.4269C152.147 36.484 152.31 36.6309 152.465 36.9738L154.376 41.1942V36.4432H155.298V41.5126C155.298 41.9207 154.996 42.2309 154.58 42.2718C154.172 42.3207 153.886 42.1412 153.674 41.6922L151.763 37.5452V42.1983H150.849Z" fill="white"/>
</g>
</svg>
