<svg width="16" height="16" viewBox="0 0 16 16" fill="none" xmlns="http://www.w3.org/2000/svg">
<path d="M14.4004 0C15.2837 0.000210925 15.9998 0.716263 16 1.59961V14.4004C15.9998 15.2837 15.2837 15.9998 14.4004 16H10.4014V9.97656H12.4521L12.7812 7.71777H10.4014V6.75293C10.4014 5.88709 10.6458 5.45902 11.4727 5.45898H12.8018V3.29883C12.5681 3.26796 12.0746 3.2002 11.1416 3.2002C9.19337 3.2002 8.00195 4.20841 8.00195 6.50488V7.71777H5.60156V9.97656H8.00195V16H1.59961C0.716263 15.9998 0.000210925 15.2837 0 14.4004V1.59961C0.000211054 0.716263 0.716263 0.000211054 1.59961 0H14.4004Z" fill="#002341"/>
</svg>
