<svg width="62" height="48" viewBox="0 0 62 48" fill="none" xmlns="http://www.w3.org/2000/svg">
<mask id="path-1-outside-1_9_518" maskUnits="userSpaceOnUse" x="0" y="0" width="62" height="48" fill="black">
<rect fill="white" width="62" height="48"/>
<path d="M16 0H46V48H16V0Z"/>
</mask>
<path d="M16 0H46V48H16V0Z" fill="white"/>
<path d="M46 0H30V48H46H62V0H46ZM16 48H32V0H16H0V48H16Z" fill="white" mask="url(#path-1-outside-1_9_518)"/>
<path d="M20.6875 13.8462C20.6875 12.825 21.5254 12 22.5625 12H26.3125C27.3496 12 28.1875 12.825 28.1875 13.8462H33.8125C33.8125 12.825 34.6504 12 35.6875 12H39.4375C40.4746 12 41.3125 12.825 41.3125 13.8462H42.25C44.3184 13.8462 46 15.5019 46 17.5385V32.3077C46 34.3442 44.3184 36 42.25 36H19.75C17.6816 36 16 34.3442 16 32.3077V17.5385C16 15.5019 17.6816 13.8462 19.75 13.8462H20.6875ZM38.9688 20.7692C38.9688 20.0019 38.3418 19.3846 37.5625 19.3846C36.7832 19.3846 36.1562 20.0019 36.1562 20.7692V22.6154H34.2812C33.502 22.6154 32.875 23.2327 32.875 24C32.875 24.7673 33.502 25.3846 34.2812 25.3846H36.1562V27.2308C36.1562 27.9981 36.7832 28.6154 37.5625 28.6154C38.3418 28.6154 38.9688 27.9981 38.9688 27.2308V25.3846H40.8438C41.623 25.3846 42.25 24.7673 42.25 24C42.25 23.2327 41.623 22.6154 40.8438 22.6154H38.9688V20.7692ZM19.75 24C19.75 24.7673 20.377 25.3846 21.1562 25.3846H27.7188C28.498 25.3846 29.125 24.7673 29.125 24C29.125 23.2327 28.498 22.6154 27.7188 22.6154H21.1562C20.377 22.6154 19.75 23.2327 19.75 24Z" fill="#00AEEF"/>
</svg>
