<svg width="319" height="500" viewBox="0 0 319 500" fill="none" xmlns="http://www.w3.org/2000/svg">
<g opacity="0.02">
<path d="M0 308.453C0 357.262 22.2417 401.25 57.0056 430.238C71.1974 442.143 92.3658 440.239 104.232 426.072C116.158 411.905 114.25 390.774 100.058 378.929C79.8437 361.965 67.083 336.845 67.083 308.453C67.1426 257.738 108.287 216.726 159.091 216.607C209.895 216.667 251.039 257.738 251.099 308.453C251.099 336.845 238.338 361.905 218.124 378.929C203.932 390.834 202.084 411.905 213.95 426.072C225.876 440.239 246.985 442.084 261.176 430.238C295.94 401.25 318.182 357.262 318.182 308.453C318.182 220.714 246.925 149.643 159.091 149.643C71.257 149.643 0 220.714 0 308.453Z" fill="white"/>
<path d="M125.52 344.286V466.548C125.52 485.06 140.546 500 159.091 500C177.576 500 192.603 485 192.603 466.548V344.345C192.603 325.833 177.576 310.833 159.091 310.833C140.546 310.833 125.52 325.833 125.52 344.345V344.286Z" fill="white"/>
<path d="M159.091 94.3438C131.423 94.3438 104.948 99.7604 80.3806 110.475C74.3581 113.094 71.6151 120.118 74.2388 126.13C76.8625 132.141 83.8988 134.88 89.9213 132.261C111.448 122.856 134.703 118.094 159.032 118.094C165.591 118.094 170.958 112.737 170.958 106.189C170.958 99.6414 165.591 94.2842 159.032 94.2842L159.091 94.3438Z" fill="white"/>
<path d="M159.091 0.000104842C112.521 0.000104842 66.2486 9.94057 25.2833 28.8096C19.3203 31.5477 16.6966 38.6311 19.4396 44.5835C22.1825 50.5359 29.2784 53.1549 35.2414 50.4168C73.106 33.0359 115.92 23.8097 159.091 23.8097C165.651 23.8097 171.017 18.4525 171.017 11.9049C171.017 5.35725 165.651 0.000104842 159.091 0.000104842Z" fill="white"/>
<path d="M157.183 94.345C150.624 94.345 145.257 99.7022 145.257 106.25C145.257 112.797 150.624 118.155 157.183 118.155C181.571 118.155 204.827 122.917 226.293 132.321C232.316 134.94 239.352 132.202 241.976 126.19C244.6 120.178 241.857 113.155 235.834 110.536C211.267 99.8213 184.791 94.4046 157.123 94.4046L157.183 94.345Z" fill="white"/>
<path d="M157.183 0.000348982C150.624 0.000348982 145.257 5.3575 145.257 11.9051C145.257 18.4527 150.624 23.8099 157.183 23.8099C200.355 23.8099 243.168 32.9766 281.033 50.4171C287.056 53.1552 294.092 50.5361 296.835 44.5837C299.578 38.6313 296.954 31.548 290.991 28.8099C250.026 10.0003 203.753 0.000348982 157.183 0.000348982Z" fill="white"/>
<path d="M159.09 46.1305H157.182C121.285 46.3686 86.879 53.6305 54.9177 67.6186C48.8952 70.2377 46.1522 77.2615 48.7759 83.3329C51.4592 89.3448 58.4955 92.0829 64.5181 89.4639C93.7364 76.6662 125.221 70.1186 158.136 69.9401C191.051 70.0591 222.536 76.6067 251.754 89.4639C257.777 92.0829 264.813 89.3448 267.496 83.3329C270.12 77.321 267.377 70.2972 261.354 67.6186C229.393 53.571 194.987 46.3686 159.09 46.1305Z" fill="white"/>
</g>
</svg>
