<svg width="478" height="750" viewBox="0 0 478 750" fill="none" xmlns="http://www.w3.org/2000/svg">
<path d="M0 287.322C0 214.108 33.3626 148.126 85.5083 104.643C106.796 86.7863 138.549 89.6434 156.348 110.893C174.237 132.143 171.375 163.84 150.087 181.608C119.765 207.054 100.624 244.733 100.624 287.322C100.714 363.394 162.43 424.911 238.636 425.09C314.843 425.001 376.559 363.394 376.648 287.322C376.648 244.733 357.507 207.143 327.186 181.608C305.898 163.751 303.125 132.143 320.925 110.893C338.814 89.6434 370.477 86.8755 391.764 104.643C443.91 148.126 477.273 214.108 477.273 287.322C477.273 418.929 370.387 525.536 238.636 525.536C106.885 525.536 0 418.929 0 287.322Z" fill="#F5F9FA"/>
<path d="M188.279 233.572L188.279 50.1786C188.279 22.4107 210.819 0 238.636 0C266.364 0 288.904 22.5 288.904 50.1786L288.904 233.482C288.904 261.25 266.364 283.75 238.636 283.75C210.819 283.75 188.279 261.25 188.279 233.482V233.572Z" fill="#F5F9FA"/>
<path d="M238.637 608.483C197.135 608.483 157.422 600.358 120.571 584.286C111.537 580.358 107.423 569.822 111.358 560.804C115.294 551.786 125.848 547.679 134.882 551.608C167.171 565.715 202.054 572.858 238.547 572.858C248.386 572.858 256.436 580.894 256.436 590.715C256.436 600.536 248.386 608.572 238.547 608.572L238.637 608.483Z" fill="#F5F9FA"/>
<path d="M238.637 750C168.781 750 99.3726 735.089 37.9246 706.786C28.9802 702.679 25.0447 692.054 29.1591 683.125C33.2735 674.196 43.9174 670.268 52.8618 674.375C109.659 700.446 173.879 714.286 238.637 714.286C248.476 714.286 256.526 722.321 256.526 732.143C256.526 741.964 248.476 750 238.637 750Z" fill="#F5F9FA"/>
<path d="M235.775 608.482C225.936 608.482 217.886 600.446 217.886 590.625C217.886 580.804 225.936 572.768 235.775 572.768C272.357 572.768 307.24 565.625 339.44 551.518C348.474 547.589 359.028 551.696 362.964 560.714C366.9 569.732 362.785 580.268 353.751 584.196C316.9 600.268 277.187 608.393 235.685 608.393L235.775 608.482Z" fill="#F5F9FA"/>
<path d="M235.774 750C225.935 750 217.885 741.964 217.885 732.143C217.885 722.321 225.935 714.286 235.774 714.286C300.532 714.286 364.752 700.536 421.549 674.375C430.583 670.268 441.138 674.196 445.252 683.125C449.366 692.054 445.431 702.679 436.486 706.786C375.039 735 305.63 750 235.774 750Z" fill="#F5F9FA"/>
<path d="M238.636 680.803H235.773C181.928 680.446 130.319 669.553 82.3772 648.571C73.3434 644.643 69.229 634.107 73.1645 625C77.1895 615.982 87.7438 611.875 96.7777 615.803C140.605 635 187.832 644.821 237.205 645.089C286.578 644.91 333.804 635.089 377.632 615.803C386.665 611.875 397.22 615.982 401.245 625C405.18 634.018 401.066 644.553 392.032 648.571C344.09 669.643 292.481 680.446 238.636 680.803Z" fill="#F5F9FA"/>
</svg>
