<svg width="316" height="356" viewBox="0 0 316 356" fill="none" xmlns="http://www.w3.org/2000/svg">
<g opacity="0.02">
<path d="M92.5359 255.732C107.179 281.094 131.932 297.278 158.692 301.911C169.638 303.84 180.066 296.5 181.982 285.578C183.929 274.64 176.598 264.232 165.67 262.335C150.077 259.584 135.911 250.36 127.393 235.607C112.21 209.237 121.286 175.584 147.649 160.28C174.065 145.07 207.766 154.068 223.011 180.402C231.529 195.155 232.416 212.005 227.019 226.915C223.216 237.358 228.577 248.862 238.993 252.663C249.44 256.447 260.962 251.073 264.783 240.66C274.15 215.168 272.511 185.639 257.868 160.277C231.547 114.687 173.199 99.1348 127.559 125.485C81.9195 151.835 66.2146 210.142 92.5359 255.732Z" fill="#002341"/>
<path d="M168.51 236.695L205.188 300.224C210.742 309.843 223.032 313.098 232.668 307.534C242.273 301.989 245.581 289.687 240.046 280.099L203.385 216.601C197.831 206.982 185.523 203.696 175.918 209.241C166.282 214.805 162.974 227.107 168.528 236.726L168.51 236.695Z" fill="#002341"/>
<path d="M110.975 96.7508C96.5983 105.051 84.4662 115.808 74.915 128.746C72.5713 131.913 73.2531 136.386 76.42 138.723C79.5869 141.06 84.0645 140.371 86.4082 137.204C94.7721 125.859 105.427 116.408 118.069 109.109C121.477 107.142 122.659 102.748 120.694 99.3458C118.73 95.9436 114.334 94.77 110.926 96.7377L110.975 96.7508Z" fill="#002341"/>
<path d="M82.6674 47.7289C58.4686 61.7 37.4069 80.7469 21.7814 102.841C19.5044 106.053 20.2661 110.52 23.477 112.79C26.688 115.061 31.1609 114.293 33.4379 111.081C47.8987 90.6903 67.3775 73.0521 89.8102 60.1006C93.2185 58.1328 94.3999 53.7392 92.4356 50.337C90.4714 46.9347 86.0756 45.7611 82.6674 47.7289Z" fill="#002341"/>
<path d="M109.982 97.3241C106.574 99.2918 105.392 103.685 107.356 107.088C109.321 110.49 113.716 111.664 117.125 109.696C129.797 102.379 143.31 97.877 157.286 96.3239C161.201 95.878 164.035 92.3444 163.595 88.4334C163.155 84.5224 159.622 81.6956 155.707 82.1415C139.728 83.9444 124.346 89.0725 109.969 97.3729L109.982 97.3241Z" fill="#002341"/>
<path d="M81.6731 48.3008C78.2648 50.2686 77.0834 54.6622 79.0476 58.0644C81.0119 61.4667 85.4076 62.6403 88.8159 60.6725C111.249 47.721 136.245 39.64 161.152 37.3429C165.103 36.9589 167.974 33.4871 167.613 29.5713C167.253 25.6555 163.765 22.762 159.845 23.1281C132.916 25.6441 105.872 34.3297 81.6731 48.3008Z" fill="#002341"/>
<path d="M96.5061 71.6981L95.5146 72.2706C76.9335 83.1633 61.2341 97.2585 48.8229 114.115C46.4792 117.283 47.1611 121.756 50.3458 124.123C53.5436 126.442 58.0212 125.754 60.3649 122.586C71.708 107.171 86.1034 94.3235 103.153 84.3561C120.292 74.5433 138.616 68.5002 157.656 66.4155C161.571 65.9696 164.405 62.436 163.996 58.5071C163.556 54.5961 160.024 51.7694 156.091 52.1843C135.269 54.4734 115.23 61.0528 96.5061 71.6981Z" fill="#002341"/>
</g>
</svg>
