<svg width="247" height="48" viewBox="0 0 247 48" fill="none" xmlns="http://www.w3.org/2000/svg">
<path d="M0.00564374 9.2783C0.00564374 7.32557 1.46737 6.23633 3.04762 6.23633H10.5143C15.2042 6.23633 19.6684 9.2783 19.6684 15.3171C19.6684 20.5319 16.4797 24.364 10.7005 24.364H6.08395V29.957C6.08395 32.096 4.80847 33.1852 3.04198 33.1852C1.27549 33.1852 0 32.096 0 29.957V9.2783H0.00564374ZM6.08395 18.963H9.35167C11.9422 18.963 13.37 17.2021 13.37 15.3228C13.37 12.9185 11.7559 11.643 9.35167 11.643H6.08395V18.9573V18.963Z" fill="white"/>
<path d="M52.9664 12.0944C52.7802 11.3043 52.3682 9.99495 52.3682 8.97908C52.3682 7.36497 53.5646 6.01611 55.4101 6.01611C57.3967 6.01611 58.2207 7.21823 58.565 8.71946L61.6803 23.1336H61.7593L66.1502 9.1371C66.9008 6.81188 67.9505 6.02176 69.5646 6.02176C71.1787 6.02176 72.2285 6.81188 72.9791 9.1371L77.3699 23.1336H77.4433L80.5586 8.71946C80.8973 7.21823 81.7213 6.01611 83.7135 6.01611C85.5534 6.01611 86.7555 7.36497 86.7555 8.97908C86.7555 9.99495 86.3435 11.3043 86.1572 12.0944L82.105 28.6419C81.3939 31.571 80.7562 33.1851 77.8271 33.1851C75.5018 33.1851 74.2207 32.0225 73.5096 29.844L69.6041 17.6084H69.5308L65.6309 29.844C64.9142 32.0225 63.6444 33.1851 61.3135 33.1851C58.3844 33.1851 57.7466 31.571 57.0355 28.6419L52.9833 12.0944H52.9664Z" fill="white"/>
<path d="M88.7195 9.2783C88.7195 7.32557 90.1812 6.23633 91.7615 6.23633H101.068C102.981 6.23633 104.11 7.36508 104.11 9.05256C104.11 10.74 102.981 11.8688 101.068 11.8688H94.7978V16.7111H100.543C102.456 16.7111 103.579 17.8004 103.579 19.5273C103.579 21.2543 102.456 22.3436 100.543 22.3436H94.7978V27.3383H101.288C103.201 27.3383 104.33 28.388 104.33 30.1545C104.33 31.921 103.201 32.9707 101.288 32.9707H91.7559C90.1812 32.9707 88.7139 31.8815 88.7139 29.9288V9.2783H88.7195Z" fill="white"/>
<path d="M106.881 9.2783C106.881 7.32557 108.343 6.23633 109.923 6.23633H117.237C122.644 6.23633 126.171 9.53792 126.171 14.5326C126.171 18.472 123.767 21.3277 119.941 22.0388L125.235 27.7446C126.059 28.642 126.51 29.3587 126.51 30.369C126.51 31.2325 125.72 33.1852 123.395 33.1852C121.82 33.1852 121.256 32.6208 120.505 31.684L113.038 22.2646H112.959V29.957C112.959 32.096 111.684 33.1852 109.923 33.1852C108.162 33.1852 106.881 32.096 106.881 29.957V9.2783ZM112.959 17.7608H116.978C118.964 17.7608 120.093 16.4459 120.093 14.7584C120.093 12.958 118.705 11.8688 116.978 11.8688H112.959V17.7608Z" fill="white"/>
<path d="M131.166 25.9444C132.667 25.9444 134.62 27.4851 137.735 27.4851C140.1 27.4851 140.964 26.283 140.964 24.968C140.964 22.9419 138.638 22.5299 135.184 21.4012C132.03 20.3853 128.767 19.0364 128.767 14.1941C128.767 8.38104 133.305 5.63818 138.373 5.63818C143.441 5.63818 145.953 7.32566 145.953 9.65653C145.953 11.3101 144.863 12.5066 143.249 12.5066C141.297 12.5066 140.659 11.4964 138.068 11.4964C136.415 11.4964 135.292 12.3599 135.292 13.6749C135.292 15.2156 136.793 15.4019 140.997 16.7902C144.299 17.8795 147.488 19.5669 147.488 24.635C147.488 30.7923 142.95 33.5691 137.278 33.5691C133.711 33.5691 128.31 32.1807 128.31 29.1782C128.31 27.5246 129.326 25.95 131.16 25.95L131.166 25.9444Z" fill="#00AEEF"/>
<path d="M152.409 9.82646C152.973 6.63774 154.886 6 156.427 6C159.469 6 160.141 7.76085 161.681 12.5693L164.644 21.763H164.718L167.681 12.5693C169.222 7.76649 169.893 6 172.935 6C174.476 6 176.389 6.63774 176.953 9.82646L179.352 23.5633C179.837 26.34 180.368 29.382 180.368 30.2794C180.368 31.6282 179.318 33.169 177.518 33.169C174.775 33.169 174.29 31.2162 173.99 29.1563L172.19 17.2931H172.117L168.025 30.4318C167.427 32.3845 166.524 33.169 164.684 33.169C162.844 33.169 161.941 32.3845 161.343 30.4318L157.251 17.2931H157.178L155.377 29.1563C155.078 31.2219 154.593 33.169 151.85 33.169C150.05 33.169 149 31.6282 149 30.2794C149 29.382 149.525 26.34 150.016 23.5633L152.414 9.82646H152.409Z" fill="#00AEEF"/>
<path d="M188.287 11.1578C189.376 8.1948 190.313 5.63818 193.355 5.63818C196.397 5.63818 197.407 8.18915 198.496 11.1578L204.349 26.9546C205.139 29.0936 205.252 29.8047 205.252 30.7077C205.252 32.2089 204.05 33.1853 202.323 33.1853C200.336 33.1853 199.698 31.9098 199.134 30.2223L198.383 27.8237H188.399L187.649 30.2223C187.084 31.9098 186.447 33.1853 184.46 33.1853C182.733 33.1853 181.531 32.2089 181.531 30.7077C181.531 29.8047 181.644 29.0936 182.434 26.9546L188.287 11.1578ZM193.541 12.3937H193.468L190.2 22.1913H196.577L193.535 12.3937H193.541Z" fill="#00AEEF"/>
<path d="M207.012 9.2783C207.012 7.32557 208.474 6.23633 210.054 6.23633H217.374C222.775 6.23633 226.303 9.53792 226.303 14.5326C226.303 18.472 223.904 21.3277 220.072 22.0388L225.366 27.7446C226.19 28.642 226.641 29.3587 226.641 30.369C226.641 31.2325 225.857 33.1852 223.526 33.1852C221.951 33.1852 221.387 32.6208 220.636 31.684L213.17 22.2646H213.096V29.957C213.096 32.096 211.821 33.1852 210.054 33.1852C208.288 33.1852 207.012 32.096 207.012 29.957V9.2783ZM213.096 17.7608H217.109C219.101 17.7608 220.224 16.4459 220.224 14.7584C220.224 12.958 218.836 11.8688 217.109 11.8688H213.096V17.7608Z" fill="#00AEEF"/>
<path d="M233.521 11.8688H230.107C228.08 11.8688 226.952 10.74 226.952 9.05256C226.952 7.36508 228.075 6.23633 230.107 6.23633H243.014C245.04 6.23633 246.169 7.28606 246.169 9.05256C246.169 10.819 245.04 11.8688 243.014 11.8688H239.599V29.957C239.599 32.096 238.324 33.1852 236.557 33.1852C234.791 33.1852 233.515 32.096 233.515 29.957V11.8688H233.521Z" fill="#00AEEF"/>
<path d="M21.4856 18.1616C21.4856 13.5338 23.5907 9.36305 26.881 6.61455C28.2242 5.4858 30.2277 5.6664 31.3509 7.00961C32.4796 8.35282 32.299 10.3564 30.9558 11.4795C29.0426 13.0879 27.8348 15.4696 27.8348 18.1616C27.8404 22.9701 31.7346 26.8586 36.5431 26.8699C41.3516 26.8643 45.2457 22.9701 45.2514 18.1616C45.2514 15.4696 44.0436 13.0936 42.1304 11.4795C40.7872 10.3507 40.6122 8.35282 41.7353 7.00961C42.8641 5.6664 44.862 5.49145 46.2052 6.61455C49.4955 9.36305 51.6006 13.5338 51.6006 18.1616C51.6006 26.4805 44.8563 33.2191 36.5431 33.2191C28.2299 33.2191 21.4856 26.4805 21.4856 18.1616Z" fill="#00AEEF"/>
<path d="M33.3657 14.764V3.17178C33.3657 1.41658 34.7879 0 36.5431 0C38.2927 0 39.7149 1.42222 39.7149 3.17178V14.7584C39.7149 16.5136 38.2927 17.9358 36.5431 17.9358C34.7879 17.9358 33.3657 16.5136 33.3657 14.7584V14.764Z" fill="#00AEEF"/>
<path d="M132.718 46.9841C134.135 46.9841 134.761 46.1375 135.252 46.1375C135.529 46.1375 135.715 46.352 135.715 46.6793C135.715 47.2776 134.377 47.9887 132.718 47.9887C129.987 47.9887 128.581 45.6409 128.581 43.1915C128.581 40.7421 129.987 38.3887 132.786 38.3887C134.456 38.3887 135.517 39.2917 135.517 39.7714C135.517 40.0762 135.331 40.3245 135.038 40.3245C134.507 40.3245 134.242 39.3989 132.786 39.3989C130.692 39.3989 129.829 41.3911 129.829 43.1915C129.829 44.9918 130.715 46.9841 132.718 46.9841Z" fill="white"/>
<path d="M142.064 38.3945C144.756 38.3945 146.201 40.7423 146.201 43.1974C146.201 45.6524 144.756 47.9945 142.064 47.9945C139.372 47.9945 137.927 45.6467 137.927 43.1974C137.927 40.748 139.372 38.3945 142.064 38.3945ZM142.064 46.9843C144.186 46.9843 144.954 44.9977 144.954 43.1917C144.954 41.3857 144.186 39.3991 142.064 39.3991C139.942 39.3991 139.175 41.3914 139.175 43.1917C139.175 44.9921 139.942 46.9843 142.064 46.9843Z" fill="white"/>
<path d="M150.039 47.3737C150.039 47.7575 149.813 47.9945 149.452 47.9945C149.091 47.9945 148.865 47.7575 148.865 47.3737V39.0831C148.865 38.6203 149.023 38.3945 149.396 38.3945C149.74 38.3945 149.898 38.5413 150.219 39.0041L154.994 45.8612H155.022V39.021C155.022 38.6372 155.248 38.3945 155.609 38.3945C155.97 38.3945 156.196 38.6316 156.196 39.021V47.3116C156.196 47.7744 156.038 48.0002 155.666 48.0002C155.321 48.0002 155.163 47.8534 154.842 47.3907L150.067 40.5335H150.039V47.3737Z" fill="white"/>
<path d="M160.807 39.5626H159.041C158.708 39.5626 158.471 39.3876 158.471 39.0208C158.471 38.654 158.708 38.479 159.041 38.479H163.736C164.069 38.479 164.306 38.6483 164.306 39.0208C164.306 39.3933 164.064 39.5626 163.736 39.5626H161.975V47.3735C161.975 47.7573 161.75 47.9944 161.389 47.9944C161.027 47.9944 160.807 47.7573 160.807 47.3735V39.5626Z" fill="white"/>
<path d="M167.754 47.3738C167.754 47.7576 167.529 47.9946 167.168 47.9946C166.806 47.9946 166.581 47.7576 166.581 47.3738V39.1114C166.581 38.7558 166.767 38.4736 167.207 38.4736H169.369C170.853 38.4736 172.258 39.4839 172.258 41.019C172.258 42.9265 171.09 43.6433 169.685 43.6997L169.182 43.711L172.196 47.0126C172.354 47.1876 172.422 47.3287 172.422 47.5431C172.422 47.7971 172.185 47.9946 171.891 47.9946C171.654 47.9946 171.496 47.8761 171.361 47.7294L167.754 43.7787V47.3738ZM167.754 42.8362H169.346C170.565 42.8362 171.096 42.3227 171.096 41.098C171.096 40.2232 170.407 39.4782 169.318 39.4782H167.754V42.8362Z" fill="white"/>
<path d="M178.737 38.3945C181.429 38.3945 182.874 40.7423 182.874 43.1974C182.874 45.6524 181.429 47.9945 178.737 47.9945C176.045 47.9945 174.6 45.6467 174.6 43.1974C174.6 40.748 176.045 38.3945 178.737 38.3945ZM178.737 46.9843C180.859 46.9843 181.627 44.9977 181.627 43.1917C181.627 41.3857 180.859 39.3991 178.737 39.3991C176.615 39.3991 175.848 41.3914 175.848 43.1917C175.848 44.9921 176.615 46.9843 178.737 46.9843Z" fill="white"/>
<path d="M186.706 46.8263H189.195C189.528 46.8263 189.765 46.9956 189.765 47.3681C189.765 47.7406 189.528 47.9099 189.195 47.9099H186.159C185.718 47.9099 185.532 47.6334 185.532 47.2722V39.0098C185.532 38.626 185.758 38.3833 186.119 38.3833C186.48 38.3833 186.706 38.6203 186.706 39.0098V46.8207V46.8263Z" fill="white"/>
<path d="M199.704 39.4951C199.704 39.7773 199.495 40.0143 199.201 40.0143C198.682 40.0143 198.513 39.4048 197.345 39.4048C196.481 39.4048 195.849 39.9466 195.849 40.7423C195.849 42.8249 200.33 41.8316 200.33 45.0146C200.33 46.578 199.19 48.0002 197.136 48.0002C195.889 48.0002 194.511 47.5261 194.511 46.8601C194.511 46.5441 194.669 46.2619 195.002 46.2619C195.398 46.2619 195.956 46.99 197.147 46.99C198.338 46.99 199.083 46.1152 199.083 45.0654C199.083 42.8249 194.602 43.9141 194.602 40.8213C194.602 39.7208 195.635 38.3945 197.384 38.3945C198.552 38.3945 199.704 38.8855 199.704 39.4951Z" fill="white"/>
<path d="M204.823 43.485L202.289 39.3594C202.159 39.1506 202.102 39.0151 202.102 38.8684C202.102 38.5749 202.339 38.3887 202.633 38.3887C202.847 38.3887 203.045 38.4677 203.22 38.7612L205.41 42.328L207.599 38.7612C207.769 38.4677 207.972 38.3887 208.186 38.3887C208.48 38.3887 208.717 38.5749 208.717 38.8684C208.717 39.0151 208.66 39.1449 208.531 39.3594L205.996 43.485V47.3679C205.996 47.7516 205.771 47.9887 205.415 47.9887C205.06 47.9887 204.828 47.7516 204.828 47.3679V43.485H204.823Z" fill="white"/>
<path d="M215.687 39.4951C215.687 39.7773 215.478 40.0143 215.185 40.0143C214.665 40.0143 214.496 39.4048 213.328 39.4048C212.464 39.4048 211.832 39.9466 211.832 40.7423C211.832 42.8249 216.313 41.8316 216.313 45.0146C216.313 46.578 215.173 48.0002 213.119 48.0002C211.872 48.0002 210.495 47.5261 210.495 46.8601C210.495 46.5441 210.653 46.2619 210.986 46.2619C211.381 46.2619 211.939 46.99 213.13 46.99C214.321 46.99 215.066 46.1152 215.066 45.0654C215.066 42.8249 210.585 43.9141 210.585 40.8213C210.585 39.7208 211.618 38.3945 213.367 38.3945C214.536 38.3945 215.687 38.8855 215.687 39.4951Z" fill="white"/>
<path d="M220.433 39.5626H218.672C218.339 39.5626 218.102 39.3876 218.102 39.0208C218.102 38.654 218.345 38.479 218.672 38.479H223.368C223.701 38.479 223.938 38.6483 223.938 39.0208C223.938 39.3933 223.701 39.5626 223.368 39.5626H221.607V47.3735C221.607 47.7573 221.381 47.9944 221.026 47.9944C220.67 47.9944 220.439 47.7573 220.439 47.3735V39.5626H220.433Z" fill="white"/>
<path d="M227.381 46.8262H230.191C230.524 46.8262 230.761 46.9955 230.761 47.368C230.761 47.7404 230.524 47.9097 230.191 47.9097H226.833C226.399 47.9097 226.212 47.6332 226.212 47.272V39.1055C226.212 38.75 226.399 38.4678 226.833 38.4678H230.191C230.524 38.4678 230.761 38.6371 230.761 39.0096C230.761 39.3821 230.524 39.5514 230.191 39.5514H227.381V42.6385H229.943C230.276 42.6385 230.513 42.8078 230.513 43.1803C230.513 43.5528 230.27 43.7221 229.943 43.7221H227.381V46.8149V46.8262Z" fill="white"/>
<path d="M234.373 47.492C234.323 47.904 234.052 47.9943 233.747 47.9943C233.386 47.9943 233.205 47.7572 233.205 47.4017C233.205 47.2662 233.233 47.0969 233.273 46.8712L234.56 39.286C234.678 38.62 235.051 38.3999 235.474 38.3999C235.937 38.3999 236.191 38.5692 236.32 39.0094L238.335 45.9174H238.363L240.378 39.0094C240.508 38.5692 240.762 38.3999 241.225 38.3999C241.648 38.3999 242.021 38.6257 242.139 39.286L243.426 46.8712C243.465 47.0969 243.494 47.2719 243.494 47.4017C243.494 47.7572 243.307 47.9943 242.952 47.9943C242.647 47.9943 242.382 47.904 242.325 47.492L241.225 39.9068H241.197L238.939 47.5202C238.821 47.904 238.606 47.9943 238.341 47.9943C238.076 47.9943 237.867 47.904 237.748 47.5202L235.491 39.9068H235.463L234.362 47.492H234.373Z" fill="white"/>
<path d="M36.5432 38.4622C33.9245 38.4622 31.4187 37.9486 29.0934 36.9327C28.5234 36.6844 28.2638 36.0184 28.5121 35.4484C28.7605 34.8784 29.4264 34.6188 29.9964 34.8671C32.0338 35.7588 34.2349 36.2103 36.5375 36.2103C37.1583 36.2103 37.6663 36.7183 37.6663 37.3391C37.6663 37.9599 37.1583 38.4678 36.5375 38.4678L36.5432 38.4622Z" fill="#00AEEF"/>
<path d="M36.5433 47.4076C32.1355 47.4076 27.756 46.4651 23.8787 44.6761C23.3143 44.4165 23.066 43.7449 23.3256 43.1805C23.5852 42.6161 24.2569 42.3678 24.8212 42.6274C28.405 44.2754 32.4572 45.1501 36.5433 45.1501C37.1641 45.1501 37.672 45.6581 37.672 46.2789C37.672 46.8997 37.1641 47.4076 36.5433 47.4076Z" fill="#00AEEF"/>
<path d="M36.3626 38.462C35.7418 38.462 35.2339 37.954 35.2339 37.3332C35.2339 36.7124 35.7418 36.2045 36.3626 36.2045C38.6709 36.2045 40.872 35.753 42.9037 34.8613C43.4737 34.6129 44.1397 34.8725 44.388 35.4426C44.6364 36.0126 44.3767 36.6785 43.8067 36.9269C41.4815 37.9427 38.9757 38.4563 36.357 38.4563L36.3626 38.462Z" fill="#00AEEF"/>
<path d="M36.3626 47.4076C35.7418 47.4076 35.2339 46.8997 35.2339 46.2789C35.2339 45.6581 35.7418 45.1501 36.3626 45.1501C40.4487 45.1501 44.5009 44.281 48.0847 42.6274C48.6547 42.3678 49.3207 42.6161 49.5803 43.1805C49.8399 43.7449 49.5916 44.4165 49.0272 44.6761C45.1499 46.4595 40.7704 47.4076 36.3626 47.4076Z" fill="#00AEEF"/>
<path d="M36.5431 43.0334H36.3625C32.965 43.0108 29.7086 42.3223 26.6835 40.996C26.1135 40.7477 25.8539 40.0817 26.1022 39.506C26.3562 38.936 27.0222 38.6764 27.5922 38.9247C30.3576 40.1381 33.3375 40.7589 36.4528 40.7759C39.5682 40.7646 42.5481 40.1438 45.3135 38.9247C45.8835 38.6764 46.5495 38.936 46.8035 39.506C47.0518 40.0761 46.7922 40.742 46.2221 40.996C43.1971 42.3279 39.9407 43.0108 36.5431 43.0334Z" fill="#00AEEF"/>
</svg>
